<?xml version="1.0" standalone="no"?>
<!DOCTYPE svg PUBLIC "-//W3C//DTD SVG 20010904//EN"
 "http://www.w3.org/TR/2001/REC-SVG-20010904/DTD/svg10.dtd">
<svg version="1.0" xmlns="http://www.w3.org/2000/svg"
 width="700.000000pt" height="700.000000pt" viewBox="0 0 700.000000 700.000000"
 preserveAspectRatio="xMidYMid meet">
<metadata>
Created by potrace 1.14, written by Peter Selinger 2001-2017
</metadata>
<g transform="translate(0.000000,700.000000) scale(0.100000,-0.100000)"
fill="#000000" stroke="none">
<path d="M4210 6045 c0 -8 7 -15 15 -15 8 0 15 7 15 15 0 8 -7 15 -15 15 -8 0
-15 -7 -15 -15z"/>
<path d="M3740 5185 c-32 -18 -39 -25 -24 -25 12 0 27 7 34 15 7 8 18 15 26
15 7 0 16 5 19 10 9 15 -5 11 -55 -15z"/>
<path d="M3575 5096 c-56 -28 -118 -63 -140 -78 -22 -16 -44 -28 -48 -28 -5 0
-26 -13 -47 -30 -21 -16 -42 -30 -47 -30 -6 0 -18 -9 -29 -21 -10 -12 -32 -28
-49 -37 -29 -14 -75 -51 -173 -138 -26 -23 -62 -49 -79 -58 -18 -9 -101 -84
-184 -168 -140 -139 -155 -151 -193 -155 -67 -6 -72 4 -34 80 107 212 202 368
266 435 6 7 12 17 12 22 0 4 40 50 90 102 49 51 90 97 90 102 0 5 -8 3 -17 -6
-10 -8 -31 -20 -47 -26 -16 -7 -42 -25 -59 -40 -88 -79 -247 -233 -285 -277
-24 -27 -57 -65 -73 -82 -16 -18 -29 -37 -29 -42 0 -4 -7 -14 -15 -21 -9 -7
-49 -64 -91 -126 -41 -63 -79 -114 -83 -114 -5 0 -12 -12 -16 -27 -3 -15 -16
-40 -27 -56 -11 -15 -36 -58 -56 -95 -19 -37 -38 -69 -42 -72 -3 -3 -14 -23
-22 -46 -34 -84 -82 -184 -91 -184 -4 0 -15 17 -24 38 -8 20 -28 53 -45 72
-16 19 -34 42 -40 50 -7 8 -30 35 -52 60 -23 25 -61 70 -86 100 -25 30 -66 75
-92 99 -27 24 -48 47 -48 51 0 4 21 3 48 -2 50 -9 522 -28 535 -21 12 7 8 33
-6 33 -7 0 -107 5 -222 11 -201 10 -282 22 -423 62 -103 30 -78 -10 164 -262
112 -116 174 -188 174 -201 0 -5 11 -21 24 -35 13 -14 31 -41 40 -60 9 -19 21
-37 26 -40 6 -3 10 -26 10 -51 0 -41 -3 -46 -32 -59 -18 -7 -71 -21 -118 -30
-47 -9 -119 -26 -160 -37 -41 -11 -100 -25 -130 -32 -63 -14 -328 -109 -355
-127 -5 -3 -55 -25 -110 -48 -55 -23 -127 -56 -160 -73 -33 -16 -91 -46 -130
-66 -38 -19 -86 -45 -105 -58 -20 -12 -94 -52 -165 -89 -72 -38 -134 -71 -140
-76 -5 -4 -35 -20 -65 -36 -120 -64 -195 -106 -205 -114 -5 -5 -16 -9 -26 -9
-9 0 -27 -8 -40 -19 -13 -10 -41 -21 -61 -25 -37 -7 -38 -8 -38 -50 0 -23 3
-45 6 -48 5 -6 92 17 184 49 25 8 66 18 92 22 25 4 52 12 60 18 7 5 31 15 53
21 22 5 83 26 135 45 52 20 111 41 130 48 19 6 43 16 52 20 53 26 350 122 438
142 140 30 185 36 316 41 279 11 516 -46 611 -146 45 -47 76 -124 68 -168 -8
-41 -77 -136 -115 -155 -52 -27 -147 -36 -300 -29 -106 5 -150 4 -150 -4 0 -6
5 -14 11 -18 15 -9 229 -45 254 -43 97 9 245 -114 245 -204 0 -19 -35 -53
-104 -99 -64 -42 -335 -318 -337 -341 0 -7 -24 -46 -54 -87 -66 -92 -114 -172
-190 -315 -107 -201 -125 -239 -114 -250 10 -10 56 13 89 44 78 74 154 141
160 141 9 0 -26 -100 -63 -182 -30 -66 -75 -233 -116 -433 -45 -218 -89 -378
-137 -502 -13 -34 -24 -71 -24 -83 0 -21 3 -22 48 -15 51 7 198 60 222 80 14
11 39 25 190 107 30 17 60 34 65 38 38 29 211 110 234 110 35 0 42 -16 31 -66
-17 -78 -50 -272 -65 -382 -8 -61 -19 -130 -24 -152 -9 -39 -8 -40 19 -40 26
0 29 4 38 53 11 54 30 184 57 375 9 62 25 143 37 180 12 37 22 69 22 72 5 35
32 89 47 93 13 4 19 14 19 35 0 26 6 32 49 51 27 11 59 21 71 21 18 0 21 -5
18 -32 -2 -28 1 -34 19 -36 15 -2 26 5 37 25 45 82 103 107 288 124 129 13
215 5 362 -31 132 -32 200 -66 265 -131 34 -33 61 -64 61 -69 0 -5 6 -15 13
-22 36 -36 90 -136 137 -253 28 -72 58 -143 66 -160 19 -42 64 -202 71 -252 5
-41 8 -43 38 -43 32 0 33 1 25 33 -52 224 -194 590 -261 676 -11 13 -19 28
-19 33 0 34 135 -79 298 -250 248 -260 430 -405 571 -453 163 -57 462 -18 583
75 51 39 65 34 77 -24 6 -28 11 -60 11 -70 0 -14 7 -20 21 -20 20 0 21 3 13
58 -12 82 -11 147 2 145 5 -1 18 14 29 33 10 19 22 34 27 34 5 0 7 4 4 9 -8
13 14 71 39 106 41 56 78 165 83 246 4 67 0 90 -28 178 -28 90 -31 109 -24
159 8 52 11 57 37 60 15 2 27 -1 27 -7 0 -6 7 -11 16 -11 21 0 135 -61 196
-106 27 -19 51 -34 54 -34 4 0 32 -17 63 -38 31 -21 72 -46 91 -55 19 -10 55
-31 80 -47 25 -16 55 -34 67 -39 11 -5 24 -14 27 -20 7 -10 13 -14 126 -73 36
-18 97 -55 137 -81 40 -26 75 -47 79 -47 7 0 21 -7 224 -102 116 -55 229 -101
275 -112 16 -4 53 -18 82 -31 28 -13 78 -31 110 -39 32 -9 85 -24 117 -36 67
-23 106 -26 106 -7 0 12 -44 37 -67 37 -7 0 -27 6 -45 14 -18 8 -53 20 -78 27
-25 7 -50 16 -55 20 -6 4 -51 21 -101 38 -103 34 -227 84 -324 131 -36 18
-112 55 -170 83 -58 28 -116 58 -130 68 -14 10 -53 32 -85 50 -33 18 -91 53
-130 79 -58 38 -147 92 -275 165 -10 6 -24 16 -31 21 -8 6 -39 25 -69 41 -30
17 -93 54 -140 82 -47 28 -102 57 -123 63 -60 18 -63 28 -26 105 18 37 48 91
68 118 19 28 56 79 81 115 62 91 114 158 190 249 413 494 478 586 550 776 12
33 26 70 31 82 12 32 48 29 76 -5 22 -26 23 -26 38 -8 8 10 16 24 18 30 2 6
30 13 63 16 l59 6 -60 8 c-33 5 -66 13 -72 18 -15 12 -18 108 -3 108 13 0 13
63 1 76 -5 5 -11 32 -13 59 -3 47 -1 50 22 53 47 5 70 12 70 22 0 13 -41 13
-76 0 -35 -14 -55 -6 -117 43 -146 117 -190 132 -383 131 -133 -1 -165 -4
-258 -29 -77 -20 -109 -25 -118 -17 -8 6 -24 55 -37 109 -66 278 -179 528
-338 746 -54 75 -319 307 -350 307 -5 0 -37 18 -73 40 -85 52 -168 83 -365
136 -83 22 -340 30 -495 15 -118 -11 -238 -34 -340 -65 -25 -8 -85 -20 -135
-27 -53 -7 -108 -22 -134 -36 -24 -13 -50 -23 -56 -23 -7 0 -18 -7 -25 -15 -7
-8 -21 -15 -32 -15 -22 0 -121 -48 -126 -61 -2 -5 -15 -9 -29 -9 l-25 0 23 38
c13 20 26 39 30 42 4 3 11 18 14 33 4 16 19 35 32 44 23 15 28 15 71 0 51 -18
119 -22 141 -8 22 14 -22 32 -93 38 -85 8 -99 24 -60 73 82 102 177 213 236
273 40 41 119 121 174 178 86 89 273 241 335 274 20 11 32 32 21 38 -4 2 -52
-19 -107 -47z m-316 -272 c-12 -13 -27 -24 -33 -24 -11 -1 -60 -52 -265 -278
-40 -44 -79 -90 -85 -101 -11 -19 -81 -125 -112 -170 -30 -42 -61 -107 -69
-139 -7 -35 -37 -63 -96 -89 -29 -12 -39 -23 -39 -40 0 -33 25 -30 119 17 44
22 84 40 89 40 6 0 12 7 16 15 3 8 12 15 20 15 8 0 43 15 78 33 35 19 89 44
120 55 32 12 66 26 75 31 32 15 117 40 163 47 25 4 54 11 65 17 20 11 72 23
225 52 41 8 146 20 232 27 176 13 238 7 430 -38 126 -30 335 -124 423 -191
104 -79 279 -250 324 -317 73 -108 151 -250 151 -276 0 -5 9 -24 19 -42 22
-37 143 -389 137 -396 -3 -2 2 -22 10 -44 24 -69 19 -90 -26 -115 l-40 -21 0
76 c0 44 -7 96 -16 122 -9 25 -17 70 -19 101 -1 31 -8 65 -14 77 -6 11 -11 31
-11 43 0 39 -49 170 -108 288 -67 133 -93 165 -127 159 -23 -5 -128 25 -150
41 -5 5 -33 16 -60 26 -57 19 -86 42 -128 98 -44 59 -86 48 -68 -18 12 -43 -2
-46 -19 -5 -7 17 -17 30 -23 30 -17 0 -47 32 -47 50 0 9 -11 27 -24 40 -39 36
-72 10 -47 -38 5 -9 23 -57 41 -107 18 -49 42 -108 55 -130 30 -52 94 -125
110 -125 6 0 20 -8 29 -19 9 -10 37 -24 61 -31 l44 -12 -21 -39 c-17 -33 -20
-59 -21 -162 -1 -106 2 -134 26 -215 37 -126 71 -198 118 -254 21 -26 39 -53
39 -61 0 -7 11 -20 25 -27 14 -7 25 -20 25 -28 0 -12 -3 -12 -15 -2 -15 13
-38 11 -170 -10 -95 -16 -195 -47 -195 -61 0 -5 -12 -9 -28 -9 -15 0 -44 -9
-65 -20 -21 -11 -42 -18 -47 -15 -5 3 -6 43 -3 88 3 46 1 112 -5 148 -6 35
-14 89 -18 119 -7 59 -42 142 -108 254 -41 70 -190 221 -207 210 -5 -3 -9 1
-9 8 0 8 -9 21 -20 31 -19 16 -19 20 -6 45 31 61 46 157 47 309 1 140 0 154
-20 181 -11 17 -21 40 -21 51 0 14 -6 21 -19 21 -16 0 -18 -9 -19 -85 -1 -73
-6 -96 -38 -177 -35 -89 -94 -178 -118 -178 -7 0 -10 24 -8 74 4 81 -8 116
-38 116 -14 0 -20 -9 -24 -32 -3 -18 -7 -46 -10 -63 -2 -16 -6 -37 -9 -45 -2
-8 -7 -28 -11 -45 -11 -42 -54 -134 -77 -163 l-19 -25 6 60 c4 39 3 63 -4 67
-13 8 -82 -87 -119 -166 -25 -52 -29 -56 -55 -51 -21 4 -29 1 -34 -13 -3 -11
-12 -31 -19 -45 -48 -89 -67 -208 -66 -424 1 -108 -3 -165 -9 -155 -7 11 -39
15 -139 18 -110 4 -146 1 -226 -18 -80 -19 -99 -27 -122 -54 -25 -30 -25 -31
-6 -34 11 -2 49 7 84 19 54 19 85 22 199 22 74 -1 155 -6 180 -11 161 -36 257
-85 320 -163 24 -30 33 -53 37 -95 9 -89 -25 -142 -184 -286 -17 -15 -41 -29
-54 -32 -40 -9 -292 -83 -319 -94 -14 -5 -65 -23 -115 -38 -49 -15 -126 -42
-170 -61 -43 -18 -94 -36 -111 -39 -18 -3 -35 -12 -38 -19 -5 -13 -61 -45 -80
-45 -6 -1 -29 -9 -51 -20 -22 -11 -43 -19 -47 -20 -7 0 -130 -71 -138 -80 -3
-3 -23 -14 -45 -25 -42 -20 -56 -30 -142 -95 -29 -22 -59 -40 -68 -40 -16 0
-39 -46 -30 -60 10 -16 124 39 145 69 11 17 259 160 278 161 7 0 31 13 54 30
22 16 45 30 49 30 4 0 36 13 71 29 35 16 74 32 88 35 14 4 54 20 90 35 160 70
279 111 325 111 14 0 25 5 25 10 0 6 15 10 33 10 17 0 27 -4 21 -8 -7 -4 -13
-16 -15 -27 -2 -11 -21 -29 -42 -41 -21 -12 -48 -37 -59 -55 -11 -19 -29 -41
-40 -50 -20 -16 -58 -115 -58 -152 0 -30 23 -14 44 29 24 51 114 164 130 164
7 0 25 13 39 30 15 16 42 36 61 44 18 8 45 30 60 49 15 19 35 37 45 40 16 4
20 -3 24 -42 4 -25 11 -66 17 -91 6 -25 13 -71 15 -102 l4 -58 -42 -18 c-23
-11 -72 -40 -110 -66 -37 -25 -70 -46 -72 -46 -3 0 -38 -21 -78 -47 -40 -27
-84 -54 -99 -62 -15 -8 -36 -21 -45 -30 -10 -9 -34 -28 -53 -41 -19 -13 -39
-28 -45 -32 -18 -15 -140 -103 -185 -135 -25 -18 -88 -73 -140 -124 -161 -155
-206 -183 -314 -195 -22 -2 -47 -11 -55 -18 -9 -8 -33 -17 -54 -21 -20 -4 -40
-11 -43 -16 -3 -5 -34 -22 -69 -38 -61 -28 -96 -63 -76 -76 5 -3 29 -1 53 5
59 13 60 13 52 -12 -15 -50 -44 -76 -102 -94 -31 -9 -66 -25 -78 -36 -11 -10
-24 -18 -28 -18 -10 0 -96 -37 -126 -55 -14 -8 -45 -24 -70 -35 -93 -42 -170
-84 -200 -110 -27 -23 -104 -50 -144 -50 -10 0 -9 16 6 67 28 95 33 115 62
233 15 58 31 119 36 135 5 17 12 48 15 70 4 22 10 49 15 60 17 41 40 132 50
199 6 38 17 84 25 103 8 20 15 46 15 59 0 22 21 72 66 156 8 14 14 36 14 48 0
12 8 34 19 48 10 15 26 43 34 63 8 20 30 54 49 75 44 52 56 75 64 125 l7 42
-21 -21 c-12 -12 -29 -22 -37 -22 -8 0 -15 -6 -15 -13 0 -7 -22 -34 -50 -59
-28 -25 -50 -52 -50 -60 0 -17 -145 -170 -153 -162 -3 4 -2 14 2 23 5 9 17 34
27 56 29 61 96 174 111 186 10 9 13 7 13 -11 0 -36 14 -13 16 24 1 31 46 111
83 146 9 8 37 40 62 70 59 70 174 187 215 220 17 14 62 50 100 80 84 67 149
110 167 110 8 0 22 9 32 20 10 11 22 20 28 20 5 0 18 10 29 23 l20 22 -35 3
c-23 2 -57 -7 -99 -27 -76 -36 -88 -38 -88 -11 0 34 -52 116 -89 140 l-35 23
22 16 c97 68 120 92 142 142 30 68 40 184 17 202 -8 7 -17 24 -21 39 -6 27
-102 108 -127 108 -7 0 -20 6 -28 13 -9 8 -50 24 -91 36 -41 12 -84 27 -95 33
-20 12 -248 29 -365 28 -69 0 -191 -15 -251 -31 -20 -5 -50 -9 -66 -9 -16 0
-33 -4 -38 -9 -6 -6 -46 -19 -90 -31 -75 -20 -172 -54 -240 -84 -16 -7 -57
-23 -90 -35 -33 -12 -78 -31 -100 -42 -22 -10 -47 -19 -55 -19 -15 0 -89 -23
-125 -39 -28 -13 -109 -31 -114 -26 -7 8 20 34 42 41 12 4 34 15 48 25 14 10
54 33 90 51 35 18 85 48 111 66 26 17 52 32 58 32 10 0 127 58 160 80 8 5 50
25 92 45 42 19 105 52 140 72 64 38 266 125 393 170 98 34 158 54 170 57 6 2
17 6 25 9 15 6 231 57 350 82 171 36 480 50 670 31 95 -10 84 3 -23 26 -59 14
-144 20 -303 25 l-221 5 14 42 c22 67 74 184 132 296 30 58 61 119 69 135 9
17 18 32 21 35 4 3 12 18 19 34 14 32 79 133 98 153 7 7 21 32 33 55 11 24 45
70 75 102 53 56 55 58 46 26 -5 -18 -16 -40 -25 -50 -8 -9 -15 -21 -15 -27 0
-5 -16 -32 -35 -59 -19 -27 -35 -55 -35 -62 0 -8 -6 -26 -14 -40 -60 -117
-115 -256 -116 -294 0 -10 -9 -34 -19 -55 -15 -28 -18 -47 -13 -73 7 -30 12
-35 37 -35 24 0 31 5 33 25 4 26 25 56 107 160 28 34 50 66 50 70 0 5 35 46
78 92 121 129 151 160 199 204 25 22 47 45 49 50 2 5 27 27 54 49 28 22 56 47
63 57 7 10 17 18 22 18 14 0 147 109 154 126 3 8 12 14 21 14 8 0 15 4 15 10
0 5 11 12 25 16 14 3 25 13 25 21 0 8 5 11 11 8 7 -5 2 -16 -12 -31z m-599
-99 c-7 -9 -15 -13 -17 -11 -7 7 7 26 19 26 6 0 6 -6 -2 -15z m-96 -414 c3 -4
-3 -19 -14 -32 -11 -13 -31 -37 -45 -54 -14 -16 -31 -39 -39 -50 -24 -34 -28
-10 -6 44 29 75 49 101 76 101 12 0 25 -4 28 -9z m2268 -812 c110 -65 183
-139 228 -234 48 -99 52 -135 14 -135 -69 0 -125 -63 -140 -158 -5 -34 6 -124
22 -179 10 -35 -26 -29 -62 10 -85 91 -133 171 -164 277 -41 140 -43 155 -44
296 -1 196 8 204 146 123z m-775 -123 c105 -109 168 -211 191 -306 17 -72 32
-138 32 -144 0 -10 -39 -6 -45 4 -3 6 -24 10 -46 10 -101 0 -199 -132 -215
-289 -6 -60 17 -139 56 -189 26 -33 25 -39 -10 -57 -59 -30 -135 -38 -210 -21
-80 19 -98 20 -84 7 15 -15 160 -61 191 -61 16 0 34 -5 41 -12 9 -9 22 -5 57
20 25 18 50 32 55 32 6 0 10 3 10 8 0 7 12 14 100 65 54 31 207 107 215 107 7
0 24 7 117 49 26 11 53 21 60 21 7 0 27 7 43 16 17 8 48 19 70 23 22 5 74 18
115 29 182 50 338 63 376 31 53 -44 74 -219 38 -317 -28 -76 -92 -203 -126
-251 -22 -31 -27 -45 -19 -51 13 -8 1 -73 -39 -206 -10 -34 -28 -119 -40 -190
-12 -71 -30 -151 -40 -178 -11 -26 -18 -52 -15 -56 3 -5 7 -60 9 -122 4 -125
35 -266 106 -488 30 -95 40 -141 40 -193 0 -78 -24 -176 -56 -227 -18 -29 -93
-104 -146 -146 -116 -92 -296 -128 -444 -89 -85 22 -236 110 -316 184 -94 87
-202 232 -289 388 -69 123 -89 164 -166 353 -79 192 -188 550 -179 584 7 25
124 95 171 103 l33 5 22 -98 c27 -118 74 -266 125 -389 43 -105 168 -348 199
-387 11 -14 36 -51 55 -82 18 -30 68 -89 111 -129 72 -70 83 -76 175 -107 85
-28 112 -33 209 -34 99 -1 118 2 182 27 47 18 86 42 114 70 75 74 71 67 50
102 -29 47 -69 214 -76 318 -3 51 -1 143 5 206 6 63 9 116 7 118 -2 2 -21 -5
-42 -16 -61 -33 -68 -29 -61 32 12 97 37 252 52 317 8 36 22 94 30 130 9 36
22 70 29 75 7 6 16 21 21 34 7 23 6 23 -14 9 -12 -8 -37 -29 -55 -46 -71 -64
-145 -89 -308 -103 -93 -8 -137 -8 -159 0 -18 6 -51 11 -73 11 -23 0 -47 5
-53 11 -6 6 -29 15 -50 19 -96 21 -163 61 -142 87 6 7 18 13 25 13 8 0 31 11
52 24 20 12 48 26 62 30 14 4 34 11 45 15 54 23 104 41 138 51 20 6 37 16 37
21 0 14 -22 11 -63 -11 -20 -11 -46 -20 -56 -20 -11 0 -32 -6 -48 -14 -51 -25
-103 -46 -117 -46 -7 0 -41 -11 -75 -26 -60 -24 -121 -26 -121 -5 0 5 -34 34
-75 66 -73 55 -84 75 -45 75 11 0 42 5 70 11 50 11 68 29 28 29 -28 0 -328
-49 -348 -57 -27 -11 43 -19 84 -11 22 5 43 5 47 1 4 -4 5 -66 1 -137 l-7
-129 -30 -18 c-16 -10 -50 -27 -75 -39 -25 -12 -53 -26 -62 -31 -30 -16 -45
-10 -51 19 -3 15 -15 69 -27 121 -30 141 -29 155 23 183 28 16 41 30 39 41 -2
11 18 39 48 70 50 50 91 122 104 180 4 16 13 27 24 27 10 0 13 3 6 8 -5 4 -16
23 -24 42 -19 48 -58 110 -84 132 -12 10 -52 39 -89 64 l-68 45 6 47 c8 53 51
153 93 215 16 23 42 62 58 86 16 25 75 94 132 154 56 61 102 114 102 118 0 8
46 73 86 122 30 36 58 22 161 -87z m1807 -361 c11 -8 28 -15 37 -15 18 0 81
-39 134 -85 29 -24 29 -25 11 -40 -11 -8 -29 -15 -41 -15 -11 0 -45 -9 -75
-20 -30 -11 -66 -20 -80 -20 -28 0 -110 -24 -153 -46 -16 -8 -36 -14 -45 -14
-18 0 -63 -16 -124 -43 -21 -10 -41 -17 -45 -17 -4 0 -48 -20 -98 -45 -49 -24
-96 -45 -102 -45 -7 0 -20 27 -30 60 -9 33 -20 60 -25 60 -4 0 -8 7 -8 15 0 8
-7 15 -15 15 -8 0 -15 6 -15 14 0 7 7 19 15 26 8 7 15 18 15 24 0 6 15 24 34
40 19 15 40 42 47 58 8 19 25 35 50 45 22 8 39 18 39 22 0 8 123 30 195 34
148 9 261 6 279 -8z m-5603 -95 c-24 -21 -61 -27 -61 -10 0 5 15 14 33 19 49
14 54 12 28 -9z m5859 -108 c0 -4 -9 -13 -19 -19 -24 -15 -21 -49 8 -98 11
-20 21 -44 21 -53 -1 -25 -37 25 -45 61 -4 15 -10 27 -15 27 -13 0 -22 -54
-15 -92 3 -18 2 -38 -2 -45 -6 -8 -61 -13 -168 -16 -193 -4 -489 -36 -593 -64
-18 -4 -21 -2 -16 11 3 9 12 16 20 16 8 0 14 4 14 9 0 9 113 61 134 61 6 0 17
5 23 11 16 16 120 59 180 74 28 7 62 20 75 29 12 9 32 16 43 16 11 0 40 7 65
16 126 44 290 76 290 56z m-1550 -142 c-8 -5 -22 -10 -30 -10 -13 0 -13 1 0
10 8 5 22 10 30 10 13 0 13 -1 0 -10z m-187 -54 c6 -15 -11 -36 -29 -36 -20 0
-24 29 -6 39 23 14 29 13 35 -3z m1632 -116 c4 -12 -4 -41 -19 -74 -14 -30
-26 -57 -26 -60 0 -7 -59 -104 -107 -176 -73 -109 -92 -133 -132 -175 -21 -22
-44 -49 -52 -61 -8 -12 -37 -48 -66 -80 -89 -101 -94 -108 -134 -160 -22 -28
-39 -56 -39 -62 0 -6 -8 -13 -17 -17 -17 -5 -123 -141 -224 -285 -54 -77 -128
-211 -138 -247 -18 -69 -35 -24 -66 179 -18 114 -19 192 -5 219 6 10 15 47 20
82 5 34 14 82 19 107 6 25 15 68 20 95 29 151 99 395 113 395 4 0 8 5 8 11 0
5 11 35 25 65 14 30 25 57 25 60 0 6 26 68 39 94 4 8 25 18 47 23 21 4 41 11
44 16 10 16 137 40 275 50 77 6 158 13 180 15 22 1 77 3 122 4 74 2 82 0 88
-18z m-2185 -419 c23 -16 50 -42 62 -56 l21 -27 -29 -28 c-30 -29 -151 -83
-166 -74 -12 7 -10 167 2 200 9 23 15 26 40 21 16 -4 48 -20 70 -36z m198
-130 c16 -9 35 -18 145 -66 20 -9 37 -21 37 -27 0 -9 3 -9 11 -1 7 7 24 8 47
3 20 -5 81 -12 135 -15 68 -5 100 -12 104 -21 3 -7 0 -35 -7 -61 -16 -66 -46
-235 -66 -371 -3 -18 -12 -36 -20 -39 -20 -7 -119 14 -157 33 -16 8 -34 14
-40 14 -6 0 -19 7 -29 17 -27 24 -26 53 18 368 5 35 3 47 -4 40 -11 -11 -46
-196 -58 -303 -4 -34 -11 -65 -16 -68 -12 -8 -186 104 -204 131 -10 16 -15 64
-18 178 -3 143 -2 157 16 176 20 22 75 28 106 12z m-140 -121 c4 -100 -6 -210
-19 -210 -9 0 -54 37 -99 82 -27 27 -40 65 -40 119 0 29 13 41 83 80 62 33 71
25 75 -71z m921 -25 c-10 -55 -31 -172 -45 -260 -15 -88 -32 -165 -38 -171
-13 -14 -161 -44 -216 -44 -24 0 -42 6 -47 15 -9 15 36 355 56 431 13 50 24
60 74 69 20 4 40 11 43 16 3 5 23 9 44 9 21 0 60 11 87 24 26 14 51 22 54 18
4 -4 -2 -52 -12 -107z m-1351 -162 c5 -21 13 -54 17 -73 7 -31 115 -361 132
-400 3 -8 14 -35 23 -60 39 -102 114 -266 141 -309 16 -25 29 -49 29 -53 0 -5
12 -27 27 -51 16 -23 32 -52 38 -63 5 -12 21 -36 35 -54 62 -80 150 -187 172
-209 25 -25 137 -98 181 -118 15 -7 27 -17 27 -23 0 -5 9 -10 20 -10 11 0 20
-3 20 -8 0 -12 93 -41 181 -56 83 -14 219 -9 249 9 17 10 80 24 80 18 0 -9
-31 -31 -95 -67 -51 -29 -76 -36 -165 -46 -139 -16 -251 -6 -300 25 -21 13
-40 21 -44 18 -9 -9 -67 18 -111 51 -22 17 -44 34 -50 38 -124 93 -314 272
-362 341 -14 20 -43 47 -65 59 -21 12 -38 25 -38 28 0 4 -13 21 -30 40 -16 18
-31 36 -32 39 -5 9 -115 101 -122 101 -4 0 -25 12 -49 27 -121 78 -326 163
-392 163 -11 0 -27 6 -33 12 -9 9 -67 13 -212 13 -137 0 -200 3 -200 11 0 24
194 186 315 264 17 10 37 25 45 32 37 33 124 98 132 98 8 0 65 37 78 50 12 13
116 80 123 80 8 0 68 40 77 51 9 11 122 69 135 69 6 0 17 -17 23 -37z"/>
<path d="M4975 2643 c-100 -22 -152 -41 -276 -102 -79 -38 -157 -81 -174 -95
-26 -22 -28 -27 -15 -39 8 -8 53 -24 100 -36 119 -32 252 -85 306 -122 53 -36
50 -38 108 71 44 83 76 193 76 259 0 46 -3 53 -26 61 -26 10 -63 11 -99 3z"/>
<path d="M4225 2244 c-278 -22 -283 -34 -10 -27 132 3 244 7 248 10 4 3 3 11
-4 19 -13 16 -3 16 -234 -2z"/>
<path d="M6628 2963 c-16 -2 -28 -9 -28 -15 0 -11 103 -6 215 10 55 8 52 9
-50 9 -60 0 -122 -2 -137 -4z"/>
<path d="M6325 2920 c-38 -10 -24 -13 45 -10 30 1 59 6 65 11 11 11 -66 10
-110 -1z"/>
<path d="M0 2743 c0 -27 4 -32 33 -37 62 -13 298 -157 400 -245 118 -102 458
-293 581 -326 28 -7 85 -23 126 -35 110 -31 295 -69 371 -76 54 -5 67 -4 72 9
4 12 -8 17 -61 27 -37 6 -121 25 -187 42 -66 17 -142 35 -170 40 -81 16 -149
40 -313 114 -29 13 -56 24 -60 24 -4 0 -31 16 -61 35 -29 19 -57 35 -61 35 -5
0 -28 15 -53 34 -24 19 -55 39 -67 46 -24 13 -78 58 -116 98 -12 12 -26 22
-31 22 -6 0 -47 25 -91 55 -45 30 -85 55 -90 55 -5 0 -15 7 -22 15 -7 8 -21
15 -33 15 -11 0 -34 8 -51 19 -17 10 -42 22 -56 26 -14 4 -33 14 -42 23 -17
14 -18 13 -18 -15z"/>
<path d="M1540 2720 c0 -13 5 -20 13 -17 6 2 12 10 12 17 0 7 -6 15 -12 18 -8
2 -13 -5 -13 -18z"/>
<path d="M6440 2531 c0 -15 58 -24 117 -16 30 4 53 8 51 10 -10 9 -168 15
-168 6z"/>
<path d="M6660 2511 c0 -5 7 -12 16 -15 35 -13 99 -2 88 15 -7 12 -104 12
-104 0z"/>
</g>
</svg>
